<?xml version="1.0" encoding="utf-8"?>
<!-- Generator: Adobe Illustrator 22.0.1, SVG Export Plug-In . SVG Version: 6.00 Build 0)  -->
<svg version="1.1" id="レイヤー_1" xmlns="http://www.w3.org/2000/svg" xmlns:xlink="http://www.w3.org/1999/xlink" x="0px"
	 y="0px" viewBox="0 0 30 66" style="enable-background:new 0 0 30 66;" xml:space="preserve">
<style type="text/css">
	.st0{fill:#FFFFFF;}
</style>
<g>
	<g>
		<path class="st0" d="M2.7,15L2.7,15v17.7C2.7,39.5,8.2,45,15,45c6.8,0,12.3-5.5,12.3-12.3V15c0-6.8-5.5-12.3-12.3-12.3
			C8.2,2.7,2.7,8.2,2.7,15L2.7,15z M0,15C0,6.7,6.7,0,15,0c8.3,0,15,6.7,15,15v17.7c0,8.3-6.7,15-15,15c-8.3,0-15-6.7-15-15V15L0,15
			z"/>
		<path class="st0" d="M13.6,10.9c0-0.8,0.6-1.4,1.4-1.4c0.8,0,1.4,0.6,1.4,1.4v5.4c0,0.8-0.6,1.4-1.4,1.4c-0.8,0-1.4-0.6-1.4-1.4
			V10.9z"/>
		<path class="st0" d="M15,62.7l10.1-10.1c0.5-0.5,1.4-0.5,1.9,0c0.5,0.5,0.5,1.4,0,1.9L16,65.6c-0.3,0.3-0.6,0.4-1,0.4
			s-0.7-0.1-1-0.4L3,54.5c-0.5-0.5-0.5-1.4,0-1.9s1.4-0.5,1.9,0L15,62.7z"/>
	</g>
</g>
</svg>
