<?xml version="1.0" encoding="utf-8"?>
<!-- Generator: Adobe Illustrator 22.0.1, SVG Export Plug-In . SVG Version: 6.00 Build 0)  -->
<svg version="1.1" id="レイヤー_1" xmlns="http://www.w3.org/2000/svg" xmlns:xlink="http://www.w3.org/1999/xlink" x="0px"
	 y="0px" viewBox="0 0 90.5 90.4" style="enable-background:new 0 0 90.5 90.4;" xml:space="preserve">
<style type="text/css">
	.st0{fill:#FFFFFF;}
</style>
<rect x="17.9" y="8.6" class="st0" width="68.1" height="81.8"/>
<path d="M85.5,0H5C2.2,0,0,2.2,0,5v80.4c0,2.8,2.2,5,5,5h43.4v-35H36.6V41.8h11.8V31.7c0-11.7,7.1-18,17.6-18c5,0,9.3,0.4,10.5,0.5
	v12.2l-7.2,0c-5.7,0-6.8,2.7-6.8,6.6v8.7H76l-1.8,13.6H62.5v35h23.1c2.8,0,5-2.2,5-5V5C90.5,2.2,88.3,0,85.5,0"/>
</svg>
